<svg viewBox="0 0 28 31" xmlns="http://www.w3.org/2000/svg"><g fill-rule="evenodd"><path d="M20.327 17.674h-3.66c-.04-2.835-.64-5.154-1.54-6.272 2.876.586 5.066 3.156 5.2 6.272m-5.2 6.871c.9-1.118 1.5-3.437 1.54-6.273h3.66c-.134 3.117-2.324 5.687-5.2 6.273M7.43 18.272h3.66c.04 2.534.596 5.07 1.548 6.274-2.88-.583-5.074-3.154-5.208-6.274m5.207-6.871c-.951 1.204-1.507 3.74-1.547 6.273H7.43c.134-3.119 2.328-5.69 5.207-6.273m1.242 13.272c-1.022 0-2.154-2.615-2.212-6.4h4.423c-.058 3.785-1.19 6.4-2.211 6.4m2.211-6.999h-4.423c.058-3.785 1.19-6.4 2.212-6.4 1.021 0 2.153 2.615 2.211 6.4m-9.252.3c0 4.024 3.159 7.297 7.04 7.297 3.883 0 7.04-3.273 7.04-7.298 0-4.024-3.157-7.297-7.04-7.297-3.881 0-7.04 3.273-7.04 7.297"/><path d="M26.838 29.572H.956V12.744L11.81 1.493a2.883 2.883 0 0 1 4.175 0l10.853 11.25v16.829zM16.393 1.07a3.445 3.445 0 0 0-4.991 0L.379 12.496V30.17h27.037V12.496L16.393 1.07z"/></g></svg>